<?xml version="1.0" encoding="UTF-8"?>
<svg xmlns="http://www.w3.org/2000/svg" xmlns:xlink="http://www.w3.org/1999/xlink" width="24px" height="24px" viewBox="0 0 24 23" version="1.1">
<g id="surface1">
<path style=" stroke:none;fill-rule:nonzero;fill:rgb(87.843138%,10.588235%,14.117648%);fill-opacity:1;" d="M 4.292969 3.359375 C 3.222656 3.601562 3.363281 5.042969 4.660156 7.078125 C 4.84375 7.375 5.09375 7.742188 5.207031 7.902344 L 5.414062 8.191406 L 5.328125 8.425781 C 5.195312 8.796875 5.246094 8.832031 5.75 8.738281 C 5.886719 8.71875 6.355469 8.652344 6.796875 8.601562 C 7.238281 8.546875 7.617188 8.496094 7.640625 8.480469 C 7.660156 8.46875 7.804688 8.296875 7.964844 8.105469 C 8.117188 7.910156 8.289062 7.710938 8.347656 7.664062 C 8.40625 7.613281 8.496094 7.503906 8.554688 7.410156 C 8.65625 7.257812 8.65625 7.25 8.574219 7.203125 C 8.523438 7.175781 8.210938 6.976562 7.875 6.765625 C 6.988281 6.207031 7.0625 6.226562 6.820312 6.425781 C 6.605469 6.601562 6.1875 7.074219 5.890625 7.480469 C 5.789062 7.617188 5.6875 7.726562 5.664062 7.726562 C 5.617188 7.726562 5.398438 7.074219 5.328125 6.710938 C 5.199219 6.054688 5.535156 5.65625 6.171875 5.71875 C 6.824219 5.78125 8.042969 6.464844 9.519531 7.605469 C 10.421875 8.296875 10.617188 8.472656 10.574219 8.515625 C 10.550781 8.539062 10.1875 8.578125 9.761719 8.601562 C 8.59375 8.671875 6.519531 8.847656 6.265625 8.894531 C 6.210938 8.910156 5.976562 8.941406 5.734375 8.96875 C 3.84375 9.210938 1.71875 9.824219 1.007812 10.339844 C 0.589844 10.644531 0.480469 10.820312 0.480469 11.164062 C 0.480469 11.449219 0.589844 11.648438 0.902344 11.914062 C 1.371094 12.320312 2.457031 12.777344 3.835938 13.15625 C 4.53125 13.347656 4.636719 13.390625 4.664062 13.484375 C 4.683594 13.542969 4.78125 13.851562 4.875 14.167969 C 5.039062 14.707031 5.226562 15.144531 5.320312 15.199219 C 5.335938 15.207031 5.566406 14.9375 5.832031 14.589844 C 6.089844 14.246094 6.484375 13.761719 6.707031 13.511719 C 6.925781 13.261719 7.105469 13.039062 7.105469 13.023438 C 7.105469 13.003906 7.054688 12.785156 7.003906 12.53125 C 6.917969 12.148438 6.902344 11.929688 6.90625 11.1875 C 6.910156 10.597656 6.894531 10.304688 6.859375 10.304688 C 6.835938 10.304688 6.71875 10.324219 6.609375 10.351562 C 6.5 10.371094 6.148438 10.445312 5.832031 10.511719 C 4.632812 10.757812 4.664062 10.75 4.597656 10.964844 C 4.570312 11.066406 4.539062 11.527344 4.53125 11.984375 C 4.515625 12.925781 4.550781 12.875 4.105469 12.664062 C 3.101562 12.183594 2.945312 11.472656 3.738281 10.964844 C 4.253906 10.640625 4.859375 10.445312 6.023438 10.234375 C 6.210938 10.203125 6.566406 10.132812 6.816406 10.082031 C 7.296875 9.980469 8.207031 9.875 9.234375 9.796875 C 10.070312 9.734375 10.320312 9.738281 10.320312 9.808594 C 10.316406 9.839844 10.140625 10.042969 9.929688 10.257812 C 8.394531 11.820312 7.359375 13.011719 5.992188 14.789062 C 5.179688 15.835938 4.839844 16.359375 4.335938 17.320312 C 3.925781 18.09375 3.707031 18.691406 3.648438 19.167969 C 3.585938 19.734375 3.667969 20.019531 3.949219 20.1875 C 4.292969 20.390625 4.808594 20.390625 5.429688 20.195312 C 6.058594 19.992188 7.324219 19.316406 7.894531 18.882812 C 8 18.804688 8.164062 18.695312 8.261719 18.640625 L 8.433594 18.539062 L 9.003906 18.785156 C 10.128906 19.273438 10.726562 19.40625 11.929688 19.445312 C 12.691406 19.46875 12.859375 19.457031 13.339844 19.371094 C 14.078125 19.234375 14.5625 19.082031 15.226562 18.78125 L 15.78125 18.527344 L 16.089844 18.742188 C 17.503906 19.742188 18.777344 20.328125 19.585938 20.347656 C 19.886719 20.351562 19.976562 20.332031 20.15625 20.238281 C 20.441406 20.082031 20.542969 19.886719 20.542969 19.488281 C 20.542969 18.199219 19.445312 16.25 17.136719 13.453125 C 16.628906 12.835938 15.226562 11.289062 14.414062 10.453125 C 14.117188 10.144531 13.871094 9.863281 13.871094 9.820312 C 13.871094 9.734375 14.089844 9.730469 15.3125 9.820312 C 16.839844 9.929688 18.480469 10.222656 19.488281 10.558594 C 20.375 10.851562 20.679688 11.035156 20.859375 11.390625 C 21.015625 11.691406 20.996094 11.871094 20.769531 12.152344 C 20.617188 12.347656 19.988281 12.761719 19.765625 12.8125 L 19.652344 12.839844 L 19.652344 11.996094 C 19.644531 11.5 19.621094 11.078125 19.589844 10.960938 C 19.539062 10.792969 19.511719 10.765625 19.304688 10.699219 C 19.046875 10.617188 18.421875 10.488281 18.289062 10.488281 C 18.203125 10.488281 18.195312 10.53125 18.203125 11.277344 C 18.207031 11.996094 18.195312 12.121094 18.082031 12.566406 C 18.015625 12.839844 17.898438 13.1875 17.832031 13.34375 C 17.765625 13.5 17.710938 13.675781 17.710938 13.726562 C 17.710938 13.78125 17.816406 13.945312 17.941406 14.097656 C 18.070312 14.25 18.25 14.476562 18.339844 14.605469 C 18.550781 14.902344 18.824219 15.226562 18.863281 15.226562 C 18.941406 15.226562 19.445312 13.9375 19.511719 13.574219 C 19.539062 13.417969 19.566406 13.382812 19.671875 13.359375 C 19.742188 13.34375 19.953125 13.289062 20.136719 13.238281 C 21.988281 12.738281 23.152344 12.191406 23.542969 11.625 C 23.683594 11.425781 23.710938 11.34375 23.710938 11.140625 C 23.710938 10.84375 23.628906 10.6875 23.371094 10.46875 C 22.808594 10.015625 20.960938 9.359375 19.65625 9.160156 C 17.363281 8.804688 16.554688 8.707031 15.480469 8.648438 C 13.671875 8.550781 13.585938 8.542969 13.585938 8.492188 C 13.589844 8.386719 15.128906 7.171875 15.820312 6.730469 C 16.367188 6.378906 17.179688 5.941406 17.4375 5.851562 C 17.765625 5.742188 18.328125 5.726562 18.527344 5.828125 C 18.910156 6.015625 18.988281 6.585938 18.71875 7.277344 C 18.636719 7.503906 18.546875 7.691406 18.527344 7.703125 C 18.507812 7.71875 18.316406 7.503906 18.101562 7.230469 C 17.773438 6.808594 17.246094 6.257812 17.167969 6.257812 C 17 6.257812 16.078125 6.84375 16.078125 6.949219 C 16.078125 6.996094 16.28125 7.207031 16.527344 7.425781 C 16.828125 7.691406 17.035156 7.925781 17.183594 8.160156 C 17.414062 8.523438 17.566406 8.648438 17.792969 8.648438 C 17.867188 8.648438 18.101562 8.679688 18.3125 8.71875 C 18.867188 8.8125 18.960938 8.808594 18.960938 8.683594 C 18.960938 8.628906 18.925781 8.496094 18.882812 8.394531 L 18.8125 8.207031 L 19.273438 7.496094 C 20.417969 5.734375 20.832031 4.484375 20.496094 3.804688 C 20.332031 3.476562 20.097656 3.359375 19.597656 3.359375 C 18.84375 3.359375 17.839844 3.777344 16.527344 4.644531 C 15.511719 5.308594 13.769531 6.679688 12.632812 7.699219 C 12.359375 7.945312 12.113281 8.140625 12.082031 8.140625 C 12.046875 8.136719 11.886719 8.011719 11.710938 7.863281 C 11.539062 7.710938 11.207031 7.414062 10.96875 7.210938 C 10.734375 7.003906 10.40625 6.726562 10.242188 6.582031 C 9.734375 6.132812 8.683594 5.328125 8.105469 4.941406 C 6.5625 3.910156 5.953125 3.597656 5.113281 3.398438 C 4.707031 3.308594 4.539062 3.296875 4.292969 3.359375 Z M 12.71875 10.410156 C 14.503906 12.085938 16.757812 14.808594 17.710938 16.445312 C 18.027344 16.988281 18.125 17.203125 18.222656 17.605469 C 18.359375 18.175781 18.203125 18.515625 17.753906 18.628906 C 17.503906 18.699219 17.058594 18.617188 16.597656 18.414062 C 16.285156 18.28125 16.246094 18.1875 16.453125 18.070312 C 16.636719 17.957031 17.515625 17.207031 17.628906 17.0625 L 17.722656 16.9375 L 17.183594 16.09375 C 16.890625 15.628906 16.617188 15.210938 16.585938 15.167969 C 16.523438 15.082031 16.496094 15.09375 16.167969 15.308594 C 15.277344 15.878906 14.734375 16.105469 13.8125 16.285156 C 12.699219 16.503906 11.222656 16.335938 10.199219 15.875 C 9.539062 15.574219 9.070312 15.273438 8.578125 14.816406 C 8.332031 14.585938 8.140625 14.445312 8.117188 14.472656 C 8.007812 14.585938 6.957031 16.117188 6.78125 16.421875 C 6.464844 16.96875 6.464844 16.972656 6.820312 17.304688 C 6.988281 17.457031 7.296875 17.71875 7.503906 17.878906 C 7.703125 18.046875 7.871094 18.203125 7.871094 18.234375 C 7.871094 18.355469 7.230469 18.597656 6.757812 18.652344 C 6.546875 18.675781 6.464844 18.664062 6.289062 18.574219 C 6.019531 18.441406 5.953125 18.316406 5.953125 17.941406 C 5.953125 17.347656 6.152344 16.921875 7.222656 15.277344 C 7.304688 15.15625 7.484375 14.902344 7.628906 14.714844 C 7.769531 14.527344 8.011719 14.21875 8.15625 14.03125 C 8.378906 13.734375 9.664062 12.234375 9.847656 12.046875 C 9.882812 12.011719 10.105469 11.777344 10.339844 11.523438 C 10.847656 10.980469 12.027344 9.84375 12.082031 9.84375 C 12.101562 9.84375 12.390625 10.097656 12.71875 10.410156 Z M 12.71875 10.410156 "/>
<path style=" stroke:none;fill-rule:nonzero;fill:rgb(87.843138%,10.588235%,14.117648%);fill-opacity:1;" d="M 11.207031 4.28125 C 10.230469 4.40625 8.703125 4.902344 8.746094 5.082031 C 8.753906 5.121094 8.945312 5.277344 9.175781 5.4375 C 9.402344 5.597656 9.757812 5.859375 9.960938 6.019531 C 10.382812 6.355469 10.242188 6.347656 11.101562 6.097656 C 11.707031 5.929688 12.488281 5.863281 13.167969 5.933594 C 14.375 6.054688 14.242188 6.054688 14.414062 5.902344 C 14.59375 5.742188 15.351562 5.199219 15.441406 5.164062 C 15.539062 5.128906 15.511719 5.03125 15.398438 4.957031 C 15 4.714844 13.78125 4.375 12.960938 4.277344 C 12.5 4.226562 11.636719 4.226562 11.207031 4.28125 Z M 11.207031 4.28125 "/>
</g>
</svg>
